<svg xmlns="http://www.w3.org/2000/svg" xmlns:xlink="http://www.w3.org/1999/xlink" width="500" zoomAndPan="magnify" viewBox="0 0 375 374.999991" height="500" preserveAspectRatio="xMidYMid meet" version="1.0"><defs><g/><clipPath id="3bfacacba4"><path d="M 224.15625 105.152344 L 346.40625 105.152344 L 346.40625 154.652344 L 224.15625 154.652344 Z M 224.15625 105.152344 " clip-rule="nonzero"/></clipPath><clipPath id="6ffa54fda8"><path d="M 245.789062 235.40625 L 324.539062 235.40625 L 324.539062 269.539062 L 245.789062 269.539062 Z M 245.789062 235.40625 " clip-rule="nonzero"/></clipPath></defs><rect x="-37.5" width="450" fill="#ffffff" y="-37.499999" height="449.999989" fill-opacity="1"/><rect x="-37.5" width="450" fill="#f4f4f4" y="-37.499999" height="449.999989" fill-opacity="1"/><rect x="-37.5" width="450" fill="#ffffff" y="-37.499999" height="449.999989" fill-opacity="1"/><g fill="#004aad" fill-opacity="1"><g transform="translate(221.608233, 308.626708)"><g><path d="M 62 0 L 16.203125 -130.40625 C 14.734375 -134.40625 12.929688 -137.132812 10.796875 -138.59375 C 8.660156 -140.0625 5.863281 -140.796875 2.40625 -140.796875 L 0 -140.796875 L 0 -142.796875 L 58 -142.796875 L 58 -140.796875 L 51.203125 -140.796875 C 47.597656 -140.796875 44.828125 -140.257812 42.890625 -139.1875 C 40.960938 -138.125 40 -136.195312 40 -133.40625 C 40 -131 40.664062 -127.929688 42 -124.203125 L 66.40625 -53.203125 C 71.070312 -39.867188 74.738281 -27.9375 77.40625 -17.40625 C 78.863281 -22.332031 80.523438 -27.796875 82.390625 -33.796875 C 84.265625 -39.796875 86.066406 -45.460938 87.796875 -50.796875 L 110.796875 -122.796875 C 112.265625 -126.929688 113 -130.195312 113 -132.59375 C 113 -135.664062 111.960938 -137.800781 109.890625 -139 C 107.828125 -140.195312 104.53125 -140.796875 100 -140.796875 L 87.796875 -140.796875 L 87.796875 -142.796875 L 136.203125 -142.796875 L 136.203125 -140.796875 L 129.40625 -140.796875 C 125.53125 -140.796875 122.457031 -139.695312 120.1875 -137.5 C 117.925781 -135.300781 115.929688 -131.332031 114.203125 -125.59375 L 73.59375 0 Z M 62 0 "/></g></g></g><g clip-path="url(#3bfacacba4)"><path fill="#0c0d17" d="M 346.371094 133.28125 C 346.066406 133.261719 345.761719 133.230469 345.460938 133.230469 C 336.640625 133.21875 327.820312 133.214844 319 133.210938 C 316.910156 133.207031 314.820312 133.203125 312.726562 133.214844 C 309.75 133.230469 306.773438 133.277344 303.792969 133.28125 C 301.058594 133.28125 298.316406 133.242188 295.578125 133.230469 C 294.429688 133.226562 293.28125 133.246094 292.128906 133.246094 C 289.9375 133.238281 287.742188 133.222656 285.550781 133.222656 C 284.367188 133.222656 283.1875 133.253906 282.003906 133.253906 C 279.808594 133.246094 277.617188 133.21875 275.425781 133.210938 C 273.570312 133.203125 271.714844 133.203125 269.859375 133.214844 C 269.179688 133.21875 269.027344 133.15625 268.800781 132.546875 C 268.554688 131.894531 268.351562 131.21875 268.054688 130.328125 C 267.882812 131.265625 267.738281 131.957031 267.621094 132.65625 C 266.980469 136.460938 266.347656 140.269531 265.710938 144.078125 C 265.570312 144.910156 265.371094 145.15625 264.863281 145.117188 C 264.410156 145.078125 264.25 144.851562 264.164062 144.046875 C 263.824219 140.976562 263.492188 137.910156 263.152344 134.84375 C 262.863281 132.1875 262.570312 129.53125 262.273438 126.875 C 261.96875 124.109375 261.652344 121.347656 261.34375 118.585938 C 261.171875 117.039062 261 115.488281 260.71875 113.929688 C 260.640625 114.554688 260.535156 115.179688 260.488281 115.808594 C 260.324219 118.007812 260.191406 120.210938 260.027344 122.40625 C 259.933594 123.726562 259.796875 125.042969 259.695312 126.363281 C 259.527344 128.621094 259.386719 130.886719 259.21875 133.148438 C 259.058594 135.347656 258.871094 137.539062 258.707031 139.734375 C 258.539062 141.898438 258.386719 144.066406 258.222656 146.230469 C 258.027344 148.734375 257.824219 151.234375 257.632812 153.738281 C 257.609375 154.050781 257.597656 154.355469 257.234375 154.484375 C 256.769531 154.652344 256.367188 154.4375 256.265625 153.902344 C 256.148438 153.304688 256.09375 152.695312 256.023438 152.089844 C 255.59375 148.453125 255.179688 144.8125 254.726562 141.179688 C 254.429688 138.792969 254.078125 136.410156 253.765625 134.027344 C 253.675781 133.320312 253.648438 132.609375 253.566406 131.90625 C 253.515625 131.472656 253.40625 131.046875 253.179688 130.613281 C 252.945312 131.46875 252.714844 132.328125 252.46875 133.179688 C 252.304688 133.734375 252.101562 134.273438 251.933594 134.824219 C 251.832031 135.160156 251.636719 135.332031 251.285156 135.347656 C 250.867188 135.367188 250.640625 135.136719 250.550781 134.777344 C 250.3125 133.859375 250.101562 132.933594 249.875 132.015625 C 249.449219 130.234375 249.023438 128.457031 248.59375 126.679688 C 248.546875 126.484375 248.457031 126.304688 248.3125 125.917969 C 247.925781 128.046875 247.574219 129.96875 247.226562 131.890625 C 246.722656 134.691406 246.222656 137.496094 245.71875 140.296875 C 245.707031 140.363281 245.679688 140.425781 245.671875 140.492188 C 245.609375 140.917969 245.488281 141.324219 244.972656 141.339844 C 244.488281 141.355469 244.300781 141.007812 244.132812 140.597656 C 243.277344 138.53125 242.402344 136.472656 241.527344 134.410156 C 241.371094 134.042969 241.199219 133.675781 241.027344 133.292969 C 240.722656 133.273438 240.453125 133.238281 240.1875 133.238281 C 235.066406 133.238281 229.941406 133.238281 224.820312 133.242188 C 224.617188 133.242188 224.417969 133.273438 224.214844 133.289062 C 224.214844 132.882812 224.214844 132.476562 224.214844 132.066406 C 224.722656 132.082031 225.230469 132.101562 225.738281 132.101562 C 230.757812 132.101562 235.777344 132.101562 240.800781 132.101562 C 241.976562 132.101562 241.976562 132.109375 242.425781 133.21875 C 243.109375 134.910156 243.789062 136.605469 244.648438 138.3125 C 244.75 137.851562 244.875 137.390625 244.960938 136.925781 C 245.769531 132.457031 246.570312 127.984375 247.371094 123.515625 C 247.457031 123.050781 247.535156 122.582031 247.628906 122.117188 C 247.6875 121.804688 247.90625 121.671875 248.207031 121.644531 C 248.546875 121.617188 248.808594 121.730469 248.9375 122.0625 C 249 122.21875 249.027344 122.386719 249.066406 122.550781 C 249.746094 125.386719 250.421875 128.21875 251.101562 131.054688 C 251.15625 131.277344 251.253906 131.492188 251.386719 131.882812 C 251.589844 131.210938 251.746094 130.710938 251.894531 130.207031 C 252.230469 129.035156 252.570312 127.867188 252.898438 126.695312 C 253.019531 126.257812 253.296875 126.097656 253.730469 126.136719 C 254.152344 126.179688 254.285156 126.464844 254.328125 126.835938 C 254.535156 128.613281 254.746094 130.386719 254.957031 132.164062 C 255.125 133.539062 255.296875 134.914062 255.464844 136.292969 C 255.773438 138.847656 256.078125 141.410156 256.386719 143.96875 C 256.476562 144.699219 256.574219 145.429688 256.769531 146.179688 C 256.828125 145.964844 256.917969 145.75 256.9375 145.53125 C 257.097656 143.46875 257.246094 141.40625 257.390625 139.339844 C 257.644531 135.824219 257.890625 132.304688 258.148438 128.789062 C 258.375 125.78125 258.613281 122.777344 258.851562 119.769531 C 259.097656 116.660156 259.355469 113.550781 259.597656 110.4375 C 259.691406 109.21875 259.761719 108 259.84375 106.78125 C 259.863281 106.476562 259.871094 106.171875 259.90625 105.867188 C 259.953125 105.457031 260.128906 105.15625 260.605469 105.152344 C 261.070312 105.152344 261.246094 105.414062 261.292969 105.855469 C 261.382812 106.730469 261.523438 107.601562 261.617188 108.476562 C 261.921875 111.277344 262.203125 114.078125 262.515625 116.871094 C 262.875 120.109375 263.269531 123.339844 263.632812 126.574219 C 263.878906 128.765625 264.09375 130.960938 264.335938 133.148438 C 264.546875 135.050781 264.78125 136.953125 265.023438 139.011719 C 265.152344 138.761719 265.246094 138.652344 265.265625 138.53125 C 265.496094 137.0625 265.699219 135.585938 265.949219 134.121094 C 266.230469 132.449219 266.554688 130.785156 266.859375 129.121094 C 266.945312 128.652344 267.03125 128.1875 267.113281 127.71875 C 267.175781 127.382812 267.367188 127.09375 267.691406 127.109375 C 267.945312 127.121094 268.25 127.308594 268.429688 127.507812 C 268.621094 127.722656 268.722656 128.035156 268.820312 128.320312 C 269.246094 129.53125 269.660156 130.75 270.105469 132.042969 C 270.367188 132.0625 270.664062 132.105469 270.960938 132.105469 C 274.003906 132.09375 277.050781 132.066406 280.09375 132.066406 C 284.058594 132.066406 288.023438 132.09375 291.988281 132.101562 C 296.054688 132.109375 300.117188 132.109375 304.183594 132.109375 C 307.058594 132.109375 309.933594 132.109375 312.8125 132.109375 C 323.726562 132.109375 334.644531 132.109375 345.5625 132.109375 C 345.832031 132.109375 346.101562 132.085938 346.371094 132.074219 C 346.371094 132.464844 346.371094 132.875 346.371094 133.28125 Z M 346.371094 133.28125 " fill-opacity="1" fill-rule="nonzero"/></g><g clip-path="url(#6ffa54fda8)"><path fill="#ffffff" d="M 245.789062 235.40625 L 324.589844 235.40625 L 324.589844 269.539062 L 245.789062 269.539062 Z M 245.789062 235.40625 " fill-opacity="1" fill-rule="nonzero"/></g><g fill="#004aad" fill-opacity="1"><g transform="translate(43.626513, 227.039351)"><g><path d="M 7 0 L 7 -2 L 16.796875 -2 C 21.328125 -2 24.894531 -3.066406 27.5 -5.203125 C 30.101562 -7.335938 31.40625 -10.867188 31.40625 -15.796875 L 31.40625 -127.59375 C 31.40625 -132.257812 30.101562 -135.625 27.5 -137.6875 C 24.894531 -139.757812 21.328125 -140.796875 16.796875 -140.796875 L 7 -140.796875 L 7 -142.796875 L 51.59375 -142.796875 L 99.796875 -25.59375 L 141.203125 -142.796875 L 181.40625 -142.796875 L 181.40625 -140.796875 L 177.203125 -140.796875 C 172.398438 -140.796875 168.734375 -139.726562 166.203125 -137.59375 C 163.671875 -135.46875 162.40625 -131.867188 162.40625 -126.796875 L 162.40625 -16 C 162.40625 -10.9375 163.671875 -7.335938 166.203125 -5.203125 C 168.734375 -3.066406 172.398438 -2 177.203125 -2 L 181.40625 -2 L 181.40625 0 L 125.203125 0 L 125.203125 -2 L 126.203125 -2 C 130.460938 -2 133.828125 -3.03125 136.296875 -5.09375 C 138.765625 -7.164062 140 -10.664062 140 -15.59375 L 140 -133.203125 L 93.203125 0 L 87 0 L 33.40625 -131 L 33.40625 -16 C 33.40625 -10.9375 34.738281 -7.335938 37.40625 -5.203125 C 40.070312 -3.066406 44.070312 -2 49.40625 -2 L 54.203125 -2 L 54.203125 0 Z M 7 0 "/></g></g></g><g fill="#000000" fill-opacity="1"><g transform="translate(45.762311, 260.657152)"><g><path d="M 16.617188 -0.871094 C 18.964844 -2.035156 20.832031 -4.722656 22.238281 -7.703125 C 22.308594 -7.847656 22.453125 -7.921875 22.601562 -7.871094 C 22.769531 -7.847656 22.867188 -7.703125 22.84375 -7.535156 C 22.671875 -5.0625 22.867188 -3.027344 23.957031 -1.71875 C 24.78125 -0.800781 25.96875 -0.289062 27.203125 -0.316406 C 31.660156 -0.167969 34.6875 -5.957031 36.042969 -11.386719 C 37.402344 -16.859375 37.425781 -23.496094 34.203125 -25.09375 C 33.984375 -25.191406 33.742188 -25.191406 33.550781 -25.070312 C 33.378906 -24.949219 33.257812 -24.730469 33.28125 -24.488281 C 33.28125 -24.273438 33.429688 -24.054688 33.621094 -23.957031 C 35.753906 -22.914062 36.261719 -17.511719 34.808594 -11.699219 C 33.621094 -6.976562 30.933594 -1.550781 27.25 -1.597656 C 26.378906 -1.550781 25.53125 -1.890625 24.925781 -2.519531 C 23.472656 -4.289062 24.125 -8.476562 24.828125 -12.910156 C 25.09375 -14.507812 25.363281 -16.15625 25.53125 -17.78125 C 25.578125 -18.117188 25.335938 -18.433594 25.023438 -18.480469 C 24.683594 -18.53125 24.367188 -18.3125 24.296875 -17.996094 C 22.40625 -9.59375 19.328125 -3.632812 16.058594 -2.011719 C 14.847656 -1.40625 13.417969 -1.40625 12.234375 -2.035156 C 8.9375 -3.5625 11.335938 -9.253906 13.445312 -14.265625 C 15.089844 -18.167969 16.496094 -21.535156 15.527344 -23.351562 C 15.1875 -23.957031 14.558594 -24.394531 13.855469 -24.488281 C 9.496094 -25.289062 3.753906 -22.066406 1.839844 -17.707031 C 0.410156 -14.460938 1.40625 -11.214844 4.554688 -8.839844 C 4.84375 -8.625 5.230469 -8.695312 5.449219 -8.960938 C 5.667969 -9.253906 5.621094 -9.640625 5.328125 -9.859375 C 1.863281 -12.449219 2.15625 -15.285156 3.003906 -17.199219 C 4.675781 -21 9.859375 -23.933594 13.613281 -23.230469 C 13.953125 -23.207031 14.242188 -23.035156 14.414062 -22.746094 C 15.089844 -21.460938 13.660156 -18.070312 12.28125 -14.777344 C 9.929688 -9.230469 7.292969 -2.929688 11.675781 -0.871094 C 12.449219 -0.507812 13.324219 -0.289062 14.171875 -0.289062 C 15.019531 -0.289062 15.867188 -0.507812 16.617188 -0.871094 Z M 16.617188 -0.871094 "/></g></g></g><g fill="#000000" fill-opacity="1"><g transform="translate(82.278977, 260.657152)"><g><path d="M 20.324219 -6.226562 C 20.203125 -6.347656 20.058594 -6.441406 19.886719 -6.441406 C 19.71875 -6.46875 19.546875 -6.417969 19.425781 -6.320312 C 19.328125 -6.25 10.003906 1.164062 2.230469 -2.035156 C 0.652344 -2.6875 0.582031 -3.535156 0.628906 -3.996094 C 0.628906 -4.070312 0.652344 -4.140625 0.726562 -4.191406 C 0.773438 -4.238281 0.871094 -4.238281 0.945312 -4.214844 C 2.519531 -4.117188 4.09375 -4.53125 5.449219 -5.378906 C 6.613281 -6.128906 6.808594 -6.953125 6.734375 -7.484375 C 6.6875 -8.355469 5.984375 -9.058594 5.085938 -9.082031 C 3.171875 -9.179688 -0.0234375 -6.902344 -0.558594 -4.480469 C -0.773438 -3.585938 -0.75 -1.890625 1.742188 -0.871094 C 3.269531 -0.242188 4.867188 0.046875 6.492188 0.046875 C 13.445312 0.046875 19.886719 -5.0625 20.226562 -5.328125 C 20.347656 -5.425781 20.445312 -5.59375 20.445312 -5.742188 C 20.46875 -5.910156 20.421875 -6.078125 20.324219 -6.226562 Z M 1.5 -5.691406 C 2.445312 -7 4.019531 -7.871094 5.015625 -7.800781 C 5.28125 -7.800781 5.425781 -7.703125 5.472656 -7.339844 C 5.5 -7.097656 5.230469 -6.757812 4.746094 -6.441406 C 3.753906 -5.789062 0.773438 -4.722656 1.5 -5.691406 Z M 1.5 -5.691406 "/></g></g></g><g fill="#000000" fill-opacity="1"><g transform="translate(101.675424, 260.657152)"><g><path d="M 16.664062 -6.199219 C 16.542969 -6.320312 16.375 -6.394531 16.207031 -6.394531 C 16.035156 -6.394531 15.867188 -6.320312 15.746094 -6.199219 C 15.695312 -6.152344 9.324219 0.121094 4.746094 -1.257812 C 3.125 -1.742188 2.230469 -3.292969 1.71875 -4.941406 C 1.574219 -5.472656 1.621094 -6.054688 1.863281 -6.5625 C 3.5625 -10.003906 7.726562 -19.015625 5.667969 -21.21875 C 5.183594 -21.824219 4.382812 -22.019531 3.683594 -21.726562 C 1.234375 -20.664062 -0.386719 -13.515625 -0.0976562 -8.308594 C -0.046875 -7.507812 0.046875 -6.710938 0.195312 -5.910156 C 0.195312 -5.8125 0.195312 -5.742188 0.242188 -5.667969 C 0.871094 -2.617188 2.300781 -0.652344 4.382812 -0.046875 C 4.964844 0.121094 5.546875 0.21875 6.128906 0.21875 C 11.046875 0.21875 16.398438 -5.0625 16.640625 -5.304688 C 16.761719 -5.425781 16.835938 -5.570312 16.835938 -5.742188 C 16.835938 -5.933594 16.785156 -6.078125 16.664062 -6.199219 Z M 1.234375 -8.671875 C 0.484375 -12.71875 2.980469 -20.058594 4.191406 -20.566406 C 4.238281 -20.589844 4.289062 -20.613281 4.335938 -20.613281 C 4.433594 -20.613281 4.554688 -20.566406 4.722656 -20.371094 C 5.691406 -19.355469 2.929688 -10.585938 1.648438 -8.527344 C 1.527344 -8.308594 1.285156 -8.429688 1.234375 -8.671875 Z M 1.234375 -8.671875 "/></g></g></g><g fill="#000000" fill-opacity="1"><g transform="translate(117.633309, 260.657152)"><g><path d="M 16.664062 -6.199219 C 16.542969 -6.320312 16.375 -6.394531 16.207031 -6.394531 C 16.035156 -6.394531 15.867188 -6.320312 15.746094 -6.199219 C 15.695312 -6.152344 9.324219 0.121094 4.746094 -1.257812 C 3.125 -1.742188 2.230469 -3.292969 1.71875 -4.941406 C 1.574219 -5.472656 1.621094 -6.054688 1.863281 -6.5625 C 3.5625 -10.003906 7.726562 -19.015625 5.667969 -21.21875 C 5.183594 -21.824219 4.382812 -22.019531 3.683594 -21.726562 C 1.234375 -20.664062 -0.386719 -13.515625 -0.0976562 -8.308594 C -0.046875 -7.507812 0.046875 -6.710938 0.195312 -5.910156 C 0.195312 -5.8125 0.195312 -5.742188 0.242188 -5.667969 C 0.871094 -2.617188 2.300781 -0.652344 4.382812 -0.046875 C 4.964844 0.121094 5.546875 0.21875 6.128906 0.21875 C 11.046875 0.21875 16.398438 -5.0625 16.640625 -5.304688 C 16.761719 -5.425781 16.835938 -5.570312 16.835938 -5.742188 C 16.835938 -5.933594 16.785156 -6.078125 16.664062 -6.199219 Z M 1.234375 -8.671875 C 0.484375 -12.71875 2.980469 -20.058594 4.191406 -20.566406 C 4.238281 -20.589844 4.289062 -20.613281 4.335938 -20.613281 C 4.433594 -20.613281 4.554688 -20.566406 4.722656 -20.371094 C 5.691406 -19.355469 2.929688 -10.585938 1.648438 -8.527344 C 1.527344 -8.308594 1.285156 -8.429688 1.234375 -8.671875 Z M 1.234375 -8.671875 "/></g></g></g><g fill="#000000" fill-opacity="1"><g transform="translate(133.591194, 260.657152)"><g><path d="M 21.171875 -6.03125 C 21.027344 -6.128906 20.878906 -6.199219 20.710938 -6.199219 C 20.542969 -6.175781 20.371094 -6.105469 20.273438 -5.984375 C 20.203125 -5.933594 14.871094 -0.242188 10.246094 -2.105469 C 9.253906 -2.640625 8.453125 -3.441406 7.898438 -4.433594 C 7.703125 -4.746094 7.460938 -5.0625 7.171875 -5.351562 C 6.855469 -5.742188 6.371094 -5.957031 5.863281 -5.984375 C 4.625 -6.078125 3.125 -5.257812 1.332031 -3.5625 C 1.285156 -3.511719 1.210938 -3.488281 1.136719 -3.535156 C 1.066406 -3.5625 1.015625 -3.65625 1.042969 -3.730469 L 1.574219 -6.105469 C 1.671875 -6.441406 1.453125 -6.808594 1.113281 -6.878906 C 0.773438 -6.953125 0.4375 -6.734375 0.339844 -6.394531 L -0.871094 -1.089844 C -0.945312 -0.800781 -0.800781 -0.507812 -0.53125 -0.386719 C -0.265625 -0.242188 0.046875 -0.316406 0.242188 -0.53125 C 3.488281 -4.335938 5.136719 -4.699219 5.714844 -4.722656 C 6.296875 -4.746094 6.660156 -3.996094 6.855469 -3.707031 C 7.535156 -2.519531 8.550781 -1.550781 9.761719 -0.945312 C 15.1875 1.257812 20.953125 -4.867188 21.195312 -5.136719 C 21.4375 -5.378906 21.414062 -5.789062 21.171875 -6.03125 Z M 21.171875 -6.03125 "/></g></g></g><g fill="#000000" fill-opacity="1"><g transform="translate(153.76253, 260.657152)"><g><path d="M 20.324219 -6.226562 C 20.203125 -6.347656 20.058594 -6.441406 19.886719 -6.441406 C 19.71875 -6.46875 19.546875 -6.417969 19.425781 -6.320312 C 19.328125 -6.25 10.003906 1.164062 2.230469 -2.035156 C 0.652344 -2.6875 0.582031 -3.535156 0.628906 -3.996094 C 0.628906 -4.070312 0.652344 -4.140625 0.726562 -4.191406 C 0.773438 -4.238281 0.871094 -4.238281 0.945312 -4.214844 C 2.519531 -4.117188 4.09375 -4.53125 5.449219 -5.378906 C 6.613281 -6.128906 6.808594 -6.953125 6.734375 -7.484375 C 6.6875 -8.355469 5.984375 -9.058594 5.085938 -9.082031 C 3.171875 -9.179688 -0.0234375 -6.902344 -0.558594 -4.480469 C -0.773438 -3.585938 -0.75 -1.890625 1.742188 -0.871094 C 3.269531 -0.242188 4.867188 0.046875 6.492188 0.046875 C 13.445312 0.046875 19.886719 -5.0625 20.226562 -5.328125 C 20.347656 -5.425781 20.445312 -5.59375 20.445312 -5.742188 C 20.46875 -5.910156 20.421875 -6.078125 20.324219 -6.226562 Z M 1.5 -5.691406 C 2.445312 -7 4.019531 -7.871094 5.015625 -7.800781 C 5.28125 -7.800781 5.425781 -7.703125 5.472656 -7.339844 C 5.5 -7.097656 5.230469 -6.757812 4.746094 -6.441406 C 3.753906 -5.789062 0.773438 -4.722656 1.5 -5.691406 Z M 1.5 -5.691406 "/></g></g></g><g fill="#000000" fill-opacity="1"><g transform="translate(173.158977, 260.657152)"><g><path d="M 16.617188 -6.710938 C 16.496094 -6.832031 16.351562 -6.878906 16.179688 -6.878906 C 16.011719 -6.878906 15.84375 -6.832031 15.722656 -6.710938 C 13.394531 -4.503906 10.535156 -2.957031 7.414062 -2.203125 C 7.292969 -2.15625 7.144531 -2.203125 7.074219 -2.300781 C 7 -2.421875 6.976562 -2.542969 7.050781 -2.664062 C 7.484375 -3.511719 7.386719 -4.53125 6.832031 -5.304688 C 6.492188 -5.765625 6.054688 -6.152344 5.546875 -6.441406 C 4.867188 -6.902344 4.117188 -7.4375 4.09375 -7.992188 C 4.117188 -8.308594 4.238281 -8.597656 4.457031 -8.839844 L 5.765625 -10.078125 C 6.007812 -10.320312 6.03125 -10.707031 5.8125 -10.949219 C 5.59375 -11.214844 5.230469 -11.265625 4.941406 -11.046875 C 4.433594 -10.65625 3.949219 -10.222656 3.535156 -9.714844 L -0.195312 -6.226562 C -0.363281 -6.078125 -0.4375 -5.835938 -0.386719 -5.621094 C -0.339844 -5.378906 -0.167969 -5.207031 0.046875 -5.136719 C 0.265625 -5.085938 0.507812 -5.136719 0.679688 -5.304688 L 2.519531 -7.023438 C 2.617188 -7.121094 2.738281 -7.144531 2.859375 -7.144531 C 2.980469 -7.121094 3.078125 -7.050781 3.125 -6.953125 C 3.585938 -6.320312 4.167969 -5.789062 4.820312 -5.402344 C 5.183594 -5.183594 5.5 -4.941406 5.765625 -4.625 C 6.007812 -4.359375 6.128906 -3.996094 6.054688 -3.632812 C 5.984375 -3.269531 5.765625 -2.957031 5.449219 -2.785156 C 3.898438 -1.914062 1.9375 -2.324219 0.871094 -3.753906 C 0.703125 -4.019531 0.316406 -4.117188 0.0234375 -3.925781 C -0.265625 -3.753906 -0.363281 -3.390625 -0.195312 -3.078125 C 0.605469 -1.695312 2.035156 -0.800781 3.632812 -0.679688 C 4.046875 -0.605469 4.433594 -0.582031 4.84375 -0.582031 C 8.9375 -0.582031 13.976562 -3.148438 16.617188 -5.8125 C 16.859375 -6.054688 16.859375 -6.46875 16.617188 -6.710938 Z M 16.617188 -6.710938 "/></g></g></g><g fill="#000000" fill-opacity="1"><g transform="translate(188.802055, 260.657152)"><g><path d="M 16.617188 -6.710938 C 16.496094 -6.832031 16.351562 -6.878906 16.179688 -6.878906 C 16.011719 -6.878906 15.84375 -6.832031 15.722656 -6.710938 C 13.394531 -4.503906 10.535156 -2.957031 7.414062 -2.203125 C 7.292969 -2.15625 7.144531 -2.203125 7.074219 -2.300781 C 7 -2.421875 6.976562 -2.542969 7.050781 -2.664062 C 7.484375 -3.511719 7.386719 -4.53125 6.832031 -5.304688 C 6.492188 -5.765625 6.054688 -6.152344 5.546875 -6.441406 C 4.867188 -6.902344 4.117188 -7.4375 4.09375 -7.992188 C 4.117188 -8.308594 4.238281 -8.597656 4.457031 -8.839844 L 5.765625 -10.078125 C 6.007812 -10.320312 6.03125 -10.707031 5.8125 -10.949219 C 5.59375 -11.214844 5.230469 -11.265625 4.941406 -11.046875 C 4.433594 -10.65625 3.949219 -10.222656 3.535156 -9.714844 L -0.195312 -6.226562 C -0.363281 -6.078125 -0.4375 -5.835938 -0.386719 -5.621094 C -0.339844 -5.378906 -0.167969 -5.207031 0.046875 -5.136719 C 0.265625 -5.085938 0.507812 -5.136719 0.679688 -5.304688 L 2.519531 -7.023438 C 2.617188 -7.121094 2.738281 -7.144531 2.859375 -7.144531 C 2.980469 -7.121094 3.078125 -7.050781 3.125 -6.953125 C 3.585938 -6.320312 4.167969 -5.789062 4.820312 -5.402344 C 5.183594 -5.183594 5.5 -4.941406 5.765625 -4.625 C 6.007812 -4.359375 6.128906 -3.996094 6.054688 -3.632812 C 5.984375 -3.269531 5.765625 -2.957031 5.449219 -2.785156 C 3.898438 -1.914062 1.9375 -2.324219 0.871094 -3.753906 C 0.703125 -4.019531 0.316406 -4.117188 0.0234375 -3.925781 C -0.265625 -3.753906 -0.363281 -3.390625 -0.195312 -3.078125 C 0.605469 -1.695312 2.035156 -0.800781 3.632812 -0.679688 C 4.046875 -0.605469 4.433594 -0.582031 4.84375 -0.582031 C 8.9375 -0.582031 13.976562 -3.148438 16.617188 -5.8125 C 16.859375 -6.054688 16.859375 -6.46875 16.617188 -6.710938 Z M 16.617188 -6.710938 "/></g></g></g><g fill="#000000" fill-opacity="1"><g transform="translate(204.445132, 260.657152)"><g/></g></g><g fill="#000000" fill-opacity="1"><g transform="translate(213.453225, 260.657152)"><g><path d="M 19.9375 -4.652344 C 20.128906 -4.941406 20.058594 -5.328125 19.765625 -5.546875 C 19.476562 -5.742188 19.0625 -5.667969 18.871094 -5.378906 C 18.699219 -5.109375 14.484375 0.921875 7.992188 -1.476562 C 1.769531 -3.777344 1.453125 -8.597656 2.277344 -12.257812 C 4.070312 -20.152344 12.234375 -28 16.617188 -27.613281 C 17.417969 -27.566406 18.214844 -27.324219 18.894531 -26.886719 C 19.160156 -26.644531 19.328125 -26.304688 19.28125 -25.96875 C 19.257812 -25.605469 19.039062 -25.289062 18.722656 -25.144531 C 16.132812 -23.761719 13.929688 -21.703125 12.402344 -19.207031 C 11.578125 -17.753906 11.410156 -16.59375 11.894531 -15.792969 C 12.28125 -15.234375 12.933594 -14.921875 13.636719 -14.992188 C 16.835938 -15.066406 20.976562 -20.324219 21.269531 -24.34375 C 21.242188 -24.660156 21.4375 -24.949219 21.726562 -25.046875 C 22.816406 -25.386719 23.980469 -25.578125 25.144531 -25.578125 C 25.507812 -25.578125 25.773438 -25.871094 25.773438 -26.234375 C 25.773438 -26.574219 25.484375 -26.863281 25.144531 -26.863281 L 25.121094 -26.863281 C 24.125 -26.839844 23.132812 -26.71875 22.164062 -26.476562 C 21.535156 -26.332031 20.855469 -26.574219 20.46875 -27.105469 C 19.523438 -28.195312 18.167969 -28.824219 16.714844 -28.875 C 11.386719 -29.382812 2.859375 -20.515625 1.042969 -12.523438 C -0.289062 -6.6875 2.011719 -2.324219 7.558594 -0.289062 C 8.648438 0.121094 9.808594 0.339844 10.972656 0.363281 C 16.449219 0.363281 19.886719 -4.578125 19.9375 -4.652344 Z M 13.589844 -16.253906 C 13.371094 -16.253906 13.082031 -16.277344 12.984375 -16.449219 C 12.8125 -16.738281 12.910156 -17.511719 13.492188 -18.578125 C 14.800781 -20.6875 16.59375 -22.453125 18.722656 -23.691406 C 18.964844 -23.835938 19.257812 -23.8125 19.5 -23.640625 C 19.71875 -23.472656 19.816406 -23.179688 19.742188 -22.914062 C 18.820312 -19.71875 15.601562 -16.300781 13.589844 -16.253906 Z M 13.589844 -16.253906 "/></g></g></g><g fill="#000000" fill-opacity="1"><g transform="translate(234.907973, 260.657152)"><g><path d="M 20.324219 -6.226562 C 20.203125 -6.347656 20.058594 -6.441406 19.886719 -6.441406 C 19.71875 -6.46875 19.546875 -6.417969 19.425781 -6.320312 C 19.328125 -6.25 10.003906 1.164062 2.230469 -2.035156 C 0.652344 -2.6875 0.582031 -3.535156 0.628906 -3.996094 C 0.628906 -4.070312 0.652344 -4.140625 0.726562 -4.191406 C 0.773438 -4.238281 0.871094 -4.238281 0.945312 -4.214844 C 2.519531 -4.117188 4.09375 -4.53125 5.449219 -5.378906 C 6.613281 -6.128906 6.808594 -6.953125 6.734375 -7.484375 C 6.6875 -8.355469 5.984375 -9.058594 5.085938 -9.082031 C 3.171875 -9.179688 -0.0234375 -6.902344 -0.558594 -4.480469 C -0.773438 -3.585938 -0.75 -1.890625 1.742188 -0.871094 C 3.269531 -0.242188 4.867188 0.046875 6.492188 0.046875 C 13.445312 0.046875 19.886719 -5.0625 20.226562 -5.328125 C 20.347656 -5.425781 20.445312 -5.59375 20.445312 -5.742188 C 20.46875 -5.910156 20.421875 -6.078125 20.324219 -6.226562 Z M 1.5 -5.691406 C 2.445312 -7 4.019531 -7.871094 5.015625 -7.800781 C 5.28125 -7.800781 5.425781 -7.703125 5.472656 -7.339844 C 5.5 -7.097656 5.230469 -6.757812 4.746094 -6.441406 C 3.753906 -5.789062 0.773438 -4.722656 1.5 -5.691406 Z M 1.5 -5.691406 "/></g></g></g><g fill="#000000" fill-opacity="1"><g transform="translate(254.30442, 260.657152)"><g><path d="M 21.171875 -6.03125 C 21.027344 -6.128906 20.878906 -6.199219 20.710938 -6.199219 C 20.542969 -6.175781 20.371094 -6.105469 20.273438 -5.984375 C 20.203125 -5.933594 14.871094 -0.242188 10.246094 -2.105469 C 9.253906 -2.640625 8.453125 -3.441406 7.898438 -4.433594 C 7.703125 -4.746094 7.460938 -5.0625 7.171875 -5.351562 C 6.855469 -5.742188 6.371094 -5.957031 5.863281 -5.984375 C 4.625 -6.078125 3.125 -5.257812 1.332031 -3.5625 C 1.285156 -3.511719 1.210938 -3.488281 1.136719 -3.535156 C 1.066406 -3.5625 1.015625 -3.65625 1.042969 -3.730469 L 1.574219 -6.105469 C 1.671875 -6.441406 1.453125 -6.808594 1.113281 -6.878906 C 0.773438 -6.953125 0.4375 -6.734375 0.339844 -6.394531 L -0.871094 -1.089844 C -0.945312 -0.800781 -0.800781 -0.507812 -0.53125 -0.386719 C -0.265625 -0.242188 0.046875 -0.316406 0.242188 -0.53125 C 3.488281 -4.335938 5.136719 -4.699219 5.714844 -4.722656 C 6.296875 -4.746094 6.660156 -3.996094 6.855469 -3.707031 C 7.535156 -2.519531 8.550781 -1.550781 9.761719 -0.945312 C 15.1875 1.257812 20.953125 -4.867188 21.195312 -5.136719 C 21.4375 -5.378906 21.414062 -5.789062 21.171875 -6.03125 Z M 21.171875 -6.03125 "/></g></g></g><g fill="#000000" fill-opacity="1"><g transform="translate(274.475756, 260.657152)"><g><path d="M 16.617188 -6.589844 C 16.375 -6.832031 15.964844 -6.832031 15.722656 -6.5625 C 15.671875 -6.515625 9.109375 0.0976562 4.746094 -1.550781 C 2.808594 -2.300781 1.984375 -4.554688 1.671875 -6.78125 C 2.105469 -7.847656 2.835938 -9.617188 3.511719 -11.601562 C 3.585938 -11.84375 3.65625 -11.871094 3.949219 -11.894531 C 7.21875 -12.136719 10.464844 -12.257812 12.378906 -12.257812 C 12.742188 -12.257812 13.007812 -12.546875 13.007812 -12.886719 C 13.007812 -13.25 12.742188 -13.515625 12.378906 -13.515625 C 10.535156 -13.515625 7.507812 -13.371094 4.410156 -13.203125 C 4.289062 -13.175781 4.070312 -13.25 4.238281 -13.6875 C 5.402344 -17.003906 6.226562 -20.371094 5.714844 -21.390625 C 5.207031 -22.40625 4.53125 -22.429688 4.191406 -22.359375 C 2.398438 -22.019531 1.089844 -17.367188 0.507812 -13.566406 C 0.460938 -13.226562 0.289062 -12.933594 -0.0234375 -12.910156 C -3.828125 -12.621094 -6.953125 -12.402344 -7 -12.402344 C -7.363281 -12.378906 -7.628906 -12.085938 -7.605469 -11.722656 C -7.605469 -11.386719 -7.316406 -11.09375 -6.953125 -11.117188 L -6.902344 -11.117188 C -6.832031 -11.117188 -3.898438 -11.335938 -0.242188 -11.601562 C -0.121094 -11.628906 0 -11.601562 0.0976562 -11.507812 C 0.195312 -11.433594 0.265625 -11.3125 0.265625 -11.191406 C -0.0976562 -5.425781 1.355469 -1.476562 4.289062 -0.363281 C 4.917969 -0.144531 5.570312 -0.0234375 6.25 -0.0234375 C 11.046875 -0.0234375 16.375 -5.425781 16.640625 -5.667969 C 16.761719 -5.789062 16.8125 -5.957031 16.8125 -6.128906 C 16.8125 -6.296875 16.738281 -6.46875 16.617188 -6.589844 Z M 1.792969 -13.613281 C 2.351562 -17.296875 3.464844 -20.203125 4.117188 -20.953125 C 4.191406 -21 4.289062 -21.027344 4.382812 -21 C 4.457031 -20.976562 4.53125 -20.929688 4.578125 -20.832031 C 4.867188 -20.203125 4.046875 -17.125 2.808594 -13.46875 C 2.761719 -13.25 2.59375 -13.082031 2.351562 -13.054688 C 2.230469 -13.03125 2.105469 -13.03125 1.960938 -13.03125 C 1.71875 -13.03125 1.769531 -13.417969 1.792969 -13.589844 Z M 1.5 -9.808594 C 1.257812 -9.808594 1.355469 -11.507812 1.574219 -11.75 C 1.769531 -11.871094 2.011719 -11.894531 2.203125 -11.773438 C 2.421875 -11.578125 1.769531 -9.808594 1.5 -9.808594 Z M 1.5 -9.808594 "/></g></g></g><g fill="#000000" fill-opacity="1"><g transform="translate(289.949332, 260.657152)"><g><path d="M 20.324219 -6.226562 C 20.203125 -6.347656 20.058594 -6.441406 19.886719 -6.441406 C 19.71875 -6.46875 19.546875 -6.417969 19.425781 -6.320312 C 19.328125 -6.25 10.003906 1.164062 2.230469 -2.035156 C 0.652344 -2.6875 0.582031 -3.535156 0.628906 -3.996094 C 0.628906 -4.070312 0.652344 -4.140625 0.726562 -4.191406 C 0.773438 -4.238281 0.871094 -4.238281 0.945312 -4.214844 C 2.519531 -4.117188 4.09375 -4.53125 5.449219 -5.378906 C 6.613281 -6.128906 6.808594 -6.953125 6.734375 -7.484375 C 6.6875 -8.355469 5.984375 -9.058594 5.085938 -9.082031 C 3.171875 -9.179688 -0.0234375 -6.902344 -0.558594 -4.480469 C -0.773438 -3.585938 -0.75 -1.890625 1.742188 -0.871094 C 3.269531 -0.242188 4.867188 0.046875 6.492188 0.046875 C 13.445312 0.046875 19.886719 -5.0625 20.226562 -5.328125 C 20.347656 -5.425781 20.445312 -5.59375 20.445312 -5.742188 C 20.46875 -5.910156 20.421875 -6.078125 20.324219 -6.226562 Z M 1.5 -5.691406 C 2.445312 -7 4.019531 -7.871094 5.015625 -7.800781 C 5.28125 -7.800781 5.425781 -7.703125 5.472656 -7.339844 C 5.5 -7.097656 5.230469 -6.757812 4.746094 -6.441406 C 3.753906 -5.789062 0.773438 -4.722656 1.5 -5.691406 Z M 1.5 -5.691406 "/></g></g></g><g fill="#000000" fill-opacity="1"><g transform="translate(309.345762, 260.657152)"><g><path d="M 20.878906 -6.371094 C 20.757812 -6.492188 20.613281 -6.5625 20.445312 -6.5625 C 20.273438 -6.5625 20.105469 -6.492188 19.984375 -6.371094 C 15.792969 -2.277344 8.355469 -1.40625 6.757812 -2.351562 C 5.667969 -2.980469 5.789062 -3.730469 6.5625 -5.230469 C 6.929688 -5.957031 7.339844 -6.808594 6.636719 -7.316406 C 5.984375 -7.800781 5.351562 -7.484375 4.796875 -7.195312 C 3.996094 -6.734375 3.101562 -6.492188 2.15625 -6.492188 C 1.9375 -6.492188 1.742188 -6.878906 1.792969 -7.023438 C 3.148438 -10.003906 2.542969 -10.5625 2.324219 -10.777344 C 1.960938 -11.144531 1.40625 -11.117188 0.726562 -10.707031 C -0.386719 -9.90625 -0.871094 -8.476562 -0.484375 -7.144531 C -0.386719 -6.78125 -0.21875 -6.441406 0.0234375 -6.152344 C 0 -5.886719 0.121094 -5.644531 0.363281 -5.523438 C 0.507812 -5.449219 0.679688 -5.449219 0.847656 -5.5 C 1.257812 -5.304688 1.71875 -5.207031 2.179688 -5.207031 C 3.171875 -5.183594 4.140625 -5.402344 5.015625 -5.886719 C 5.351562 -6.054688 5.472656 -5.910156 5.425781 -5.8125 C 4.84375 -4.675781 3.804688 -2.59375 6.128906 -1.234375 C 6.953125 -0.847656 7.871094 -0.679688 8.792969 -0.75 C 12.183594 -0.75 17.511719 -2.203125 20.855469 -5.472656 C 20.976562 -5.570312 21.050781 -5.742188 21.050781 -5.910156 C 21.074219 -6.078125 21 -6.25 20.878906 -6.371094 Z M 0.703125 -7.703125 C 0.558594 -8.40625 0.800781 -9.132812 1.355469 -9.59375 C 1.1875 -8.9375 0.96875 -8.308594 0.703125 -7.679688 Z M 0.703125 -7.703125 "/></g></g></g></svg>