<svg xmlns="http://www.w3.org/2000/svg" xmlns:xlink="http://www.w3.org/1999/xlink" width="500" zoomAndPan="magnify" viewBox="0 0 375 262.499992" height="350" preserveAspectRatio="xMidYMid meet" version="1.0"><defs><g/><clipPath id="22e840c11d"><path d="M 226.65625 20.015625 L 348.675781 20.015625 L 348.675781 69.421875 L 226.65625 69.421875 Z M 226.65625 20.015625 " clip-rule="nonzero"/></clipPath><clipPath id="e9e4514812"><path d="M 245.679688 178.816406 L 324.28125 178.816406 L 324.28125 212.882812 L 245.679688 212.882812 Z M 245.679688 178.816406 " clip-rule="nonzero"/></clipPath><clipPath id="bb0ec36fb4"><path d="M 0.355469 1 L 214 1 L 214 177 L 0.355469 177 Z M 0.355469 1 " clip-rule="nonzero"/></clipPath></defs><g fill="#004aad" fill-opacity="1"><g transform="translate(203.12956, 260.808031)"><g><path d="M 75.796875 0 L 19.8125 -159.4375 C 18.007812 -164.320312 15.804688 -167.660156 13.203125 -169.453125 C 10.597656 -171.253906 7.175781 -172.15625 2.9375 -172.15625 L 0 -172.15625 L 0 -174.59375 L 70.90625 -174.59375 L 70.90625 -172.15625 L 62.59375 -172.15625 C 58.195312 -172.15625 54.816406 -171.5 52.453125 -170.1875 C 50.085938 -168.882812 48.90625 -166.523438 48.90625 -163.109375 C 48.90625 -160.171875 49.71875 -156.421875 51.34375 -151.859375 L 81.1875 -65.046875 C 86.894531 -48.742188 91.378906 -34.15625 94.640625 -21.28125 C 96.429688 -27.3125 98.46875 -33.992188 100.75 -41.328125 C 103.03125 -48.660156 105.226562 -55.585938 107.34375 -62.109375 L 135.46875 -150.140625 C 137.257812 -155.191406 138.15625 -159.1875 138.15625 -162.125 C 138.15625 -165.875 136.890625 -168.484375 134.359375 -169.953125 C 131.835938 -171.421875 127.804688 -172.15625 122.265625 -172.15625 L 107.34375 -172.15625 L 107.34375 -174.59375 L 166.53125 -174.59375 L 166.53125 -172.15625 L 158.21875 -172.15625 C 153.488281 -172.15625 149.738281 -170.804688 146.96875 -168.109375 C 144.195312 -165.421875 141.75 -160.570312 139.625 -153.5625 L 89.984375 0 Z M 75.796875 0 "/></g></g></g><g clip-path="url(#22e840c11d)"><path fill="#0c0d17" d="M 348.640625 48.09375 C 348.335938 48.074219 348.035156 48.042969 347.730469 48.042969 C 338.929688 48.03125 330.125 48.027344 321.320312 48.023438 C 319.234375 48.019531 317.148438 48.015625 315.058594 48.027344 C 312.085938 48.042969 309.117188 48.089844 306.144531 48.09375 C 303.410156 48.09375 300.675781 48.054688 297.945312 48.042969 C 296.796875 48.035156 295.648438 48.058594 294.5 48.058594 C 292.3125 48.050781 290.125 48.035156 287.9375 48.035156 C 286.753906 48.035156 285.574219 48.066406 284.394531 48.066406 C 282.207031 48.058594 280.015625 48.03125 277.828125 48.023438 C 275.976562 48.015625 274.128906 48.015625 272.273438 48.027344 C 271.59375 48.03125 271.441406 47.96875 271.214844 47.359375 C 270.972656 46.707031 270.769531 46.035156 270.472656 45.148438 C 270.300781 46.082031 270.15625 46.773438 270.039062 47.46875 C 269.402344 51.269531 268.769531 55.070312 268.132812 58.871094 C 267.996094 59.699219 267.792969 59.945312 267.285156 59.90625 C 266.832031 59.867188 266.675781 59.640625 266.585938 58.835938 C 266.25 55.777344 265.917969 52.714844 265.582031 49.652344 C 265.289062 47 265 44.351562 264.703125 41.699219 C 264.398438 38.941406 264.082031 36.183594 263.773438 33.425781 C 263.601562 31.878906 263.433594 30.332031 263.148438 28.777344 C 263.070312 29.402344 262.96875 30.027344 262.921875 30.652344 C 262.757812 32.847656 262.625 35.046875 262.460938 37.238281 C 262.363281 38.554688 262.230469 39.871094 262.128906 41.1875 C 261.964844 43.445312 261.820312 45.703125 261.652344 47.960938 C 261.492188 50.152344 261.308594 52.34375 261.140625 54.535156 C 260.976562 56.695312 260.824219 58.859375 260.65625 61.019531 C 260.464844 63.515625 260.261719 66.015625 260.070312 68.511719 C 260.046875 68.824219 260.035156 69.128906 259.671875 69.257812 C 259.207031 69.421875 258.804688 69.210938 258.703125 68.675781 C 258.589844 68.078125 258.535156 67.46875 258.464844 66.863281 C 258.035156 63.234375 257.621094 59.601562 257.171875 55.976562 C 256.875 53.59375 256.523438 51.21875 256.210938 48.835938 C 256.121094 48.132812 256.09375 47.425781 256.011719 46.71875 C 255.960938 46.289062 255.851562 45.863281 255.625 45.429688 C 255.390625 46.285156 255.164062 47.144531 254.914062 47.992188 C 254.753906 48.546875 254.546875 49.082031 254.382812 49.632812 C 254.28125 49.96875 254.085938 50.140625 253.734375 50.15625 C 253.316406 50.175781 253.09375 49.945312 253 49.585938 C 252.765625 48.671875 252.550781 47.75 252.328125 46.828125 C 251.902344 45.054688 251.480469 43.277344 251.046875 41.503906 C 251.003906 41.3125 250.910156 41.132812 250.769531 40.742188 C 250.378906 42.867188 250.027344 44.785156 249.683594 46.703125 C 249.179688 49.5 248.679688 52.300781 248.179688 55.09375 C 248.167969 55.160156 248.140625 55.226562 248.132812 55.292969 C 248.066406 55.71875 247.949219 56.121094 247.433594 56.136719 C 246.949219 56.152344 246.761719 55.804688 246.597656 55.394531 C 245.742188 53.332031 244.867188 51.277344 243.996094 49.222656 C 243.839844 48.851562 243.667969 48.488281 243.496094 48.105469 C 243.191406 48.085938 242.925781 48.050781 242.660156 48.050781 C 237.546875 48.050781 232.433594 48.050781 227.320312 48.054688 C 227.117188 48.054688 226.917969 48.085938 226.714844 48.101562 C 226.714844 47.695312 226.714844 47.289062 226.714844 46.882812 C 227.222656 46.894531 227.730469 46.914062 228.234375 46.914062 C 233.246094 46.917969 238.257812 46.914062 243.269531 46.917969 C 244.445312 46.917969 244.445312 46.921875 244.894531 48.03125 C 245.574219 49.722656 246.253906 51.414062 247.109375 53.117188 C 247.214844 52.652344 247.335938 52.195312 247.421875 51.730469 C 248.226562 47.269531 249.027344 42.808594 249.828125 38.347656 C 249.914062 37.882812 249.992188 37.417969 250.085938 36.949219 C 250.144531 36.640625 250.363281 36.503906 250.660156 36.480469 C 251 36.453125 251.261719 36.566406 251.394531 36.894531 C 251.453125 37.050781 251.480469 37.21875 251.519531 37.382812 C 252.195312 40.210938 252.871094 43.039062 253.554688 45.871094 C 253.605469 46.09375 253.703125 46.308594 253.835938 46.699219 C 254.039062 46.027344 254.195312 45.527344 254.34375 45.023438 C 254.679688 43.855469 255.019531 42.691406 255.34375 41.519531 C 255.464844 41.082031 255.746094 40.921875 256.175781 40.964844 C 256.597656 41.003906 256.726562 41.289062 256.769531 41.660156 C 256.980469 43.433594 257.1875 45.207031 257.402344 46.980469 C 257.566406 48.351562 257.738281 49.722656 257.90625 51.097656 C 258.214844 53.652344 258.515625 56.207031 258.824219 58.757812 C 258.914062 59.492188 259.011719 60.21875 259.207031 60.96875 C 259.265625 60.75 259.355469 60.539062 259.375 60.320312 C 259.535156 58.261719 259.683594 56.203125 259.832031 54.140625 C 260.082031 50.632812 260.324219 47.121094 260.585938 43.609375 C 260.808594 40.609375 261.050781 37.609375 261.289062 34.609375 C 261.53125 31.503906 261.789062 28.398438 262.03125 25.292969 C 262.125 24.078125 262.195312 22.859375 262.277344 21.644531 C 262.296875 21.339844 262.304688 21.035156 262.339844 20.734375 C 262.386719 20.320312 262.5625 20.023438 263.035156 20.019531 C 263.5 20.019531 263.679688 20.277344 263.722656 20.71875 C 263.816406 21.59375 263.953125 22.464844 264.046875 23.335938 C 264.351562 26.128906 264.632812 28.925781 264.941406 31.714844 C 265.300781 34.945312 265.695312 38.171875 266.058594 41.398438 C 266.304688 43.585938 266.519531 45.777344 266.761719 47.960938 C 266.972656 49.859375 267.207031 51.757812 267.445312 53.8125 C 267.578125 53.5625 267.671875 53.453125 267.6875 53.335938 C 267.917969 51.867188 268.121094 50.394531 268.367188 48.929688 C 268.652344 47.265625 268.972656 45.601562 269.28125 43.941406 C 269.367188 43.472656 269.449219 43.007812 269.53125 42.542969 C 269.59375 42.207031 269.785156 41.917969 270.109375 41.933594 C 270.363281 41.945312 270.667969 42.132812 270.847656 42.332031 C 271.039062 42.546875 271.140625 42.859375 271.238281 43.140625 C 271.664062 44.351562 272.074219 45.566406 272.519531 46.855469 C 272.78125 46.878906 273.078125 46.921875 273.375 46.921875 C 276.410156 46.910156 279.449219 46.878906 282.488281 46.878906 C 286.445312 46.878906 290.402344 46.910156 294.359375 46.917969 C 298.417969 46.925781 302.472656 46.921875 306.53125 46.921875 C 309.402344 46.921875 312.273438 46.921875 315.144531 46.921875 C 326.039062 46.921875 336.933594 46.921875 347.832031 46.921875 C 348.101562 46.921875 348.371094 46.898438 348.640625 46.890625 C 348.640625 47.28125 348.640625 47.6875 348.640625 48.09375 Z M 348.640625 48.09375 " fill-opacity="1" fill-rule="nonzero"/></g><g clip-path="url(#e9e4514812)"><path fill="#ffffff" d="M 245.679688 178.816406 L 324.328125 178.816406 L 324.328125 212.882812 L 245.679688 212.882812 Z M 245.679688 178.816406 " fill-opacity="1" fill-rule="nonzero"/></g><g clip-path="url(#bb0ec36fb4)"><g fill="#004aad" fill-opacity="1"><g transform="translate(-8.354681, 176.251426)"><g><path d="M 8.5625 0 L 8.5625 -2.4375 L 20.546875 -2.4375 C 26.085938 -2.4375 30.445312 -3.738281 33.625 -6.34375 C 36.800781 -8.957031 38.390625 -13.28125 38.390625 -19.3125 L 38.390625 -156.015625 C 38.390625 -161.710938 36.800781 -165.828125 33.625 -168.359375 C 30.445312 -170.890625 26.085938 -172.15625 20.546875 -172.15625 L 8.5625 -172.15625 L 8.5625 -174.59375 L 63.09375 -174.59375 L 122.015625 -31.296875 L 172.640625 -174.59375 L 221.796875 -174.59375 L 221.796875 -172.15625 L 216.65625 -172.15625 C 210.78125 -172.15625 206.296875 -170.847656 203.203125 -168.234375 C 200.109375 -165.628906 198.5625 -161.226562 198.5625 -155.03125 L 198.5625 -19.5625 C 198.5625 -13.363281 200.109375 -8.957031 203.203125 -6.34375 C 206.296875 -3.738281 210.78125 -2.4375 216.65625 -2.4375 L 221.796875 -2.4375 L 221.796875 0 L 153.078125 0 L 153.078125 -2.4375 L 154.296875 -2.4375 C 159.515625 -2.4375 163.628906 -3.703125 166.640625 -6.234375 C 169.660156 -8.765625 171.171875 -13.046875 171.171875 -19.078125 L 171.171875 -162.859375 L 113.953125 0 L 106.375 0 L 40.84375 -160.171875 L 40.84375 -19.5625 C 40.84375 -13.363281 42.472656 -8.957031 45.734375 -6.34375 C 48.992188 -3.738281 53.882812 -2.4375 60.40625 -2.4375 L 66.265625 -2.4375 L 66.265625 0 Z M 8.5625 0 "/></g></g></g></g><g fill="#000000" fill-opacity="1"><g transform="translate(46.031775, 204.018534)"><g><path d="M 16.585938 -0.871094 C 18.929688 -2.03125 20.792969 -4.714844 22.195312 -7.6875 C 22.265625 -7.832031 22.410156 -7.90625 22.558594 -7.859375 C 22.726562 -7.832031 22.824219 -7.6875 22.800781 -7.519531 C 22.628906 -5.054688 22.824219 -3.023438 23.910156 -1.714844 C 24.734375 -0.796875 25.917969 -0.289062 27.152344 -0.3125 C 31.597656 -0.167969 34.621094 -5.949219 35.976562 -11.363281 C 37.328125 -16.828125 37.351562 -23.453125 34.136719 -25.046875 C 33.921875 -25.144531 33.679688 -25.144531 33.484375 -25.023438 C 33.316406 -24.902344 33.195312 -24.683594 33.21875 -24.441406 C 33.21875 -24.226562 33.363281 -24.007812 33.558594 -23.910156 C 35.683594 -22.871094 36.191406 -17.480469 34.742188 -11.675781 C 33.558594 -6.964844 30.875 -1.546875 27.199219 -1.59375 C 26.328125 -1.546875 25.484375 -1.886719 24.878906 -2.515625 C 23.425781 -4.28125 24.082031 -8.460938 24.78125 -12.886719 C 25.046875 -14.480469 25.3125 -16.125 25.484375 -17.746094 C 25.53125 -18.085938 25.289062 -18.398438 24.976562 -18.445312 C 24.636719 -18.496094 24.320312 -18.277344 24.25 -17.964844 C 22.363281 -9.574219 19.292969 -3.625 16.03125 -2.007812 C 14.820312 -1.402344 13.394531 -1.402344 12.210938 -2.03125 C 8.921875 -3.554688 11.316406 -9.234375 13.417969 -14.242188 C 15.0625 -18.132812 16.464844 -21.492188 15.496094 -23.308594 C 15.160156 -23.910156 14.53125 -24.347656 13.828125 -24.441406 C 9.476562 -25.242188 3.746094 -22.023438 1.835938 -17.671875 C 0.410156 -14.433594 1.402344 -11.195312 4.546875 -8.824219 C 4.835938 -8.605469 5.222656 -8.679688 5.441406 -8.945312 C 5.65625 -9.234375 5.609375 -9.621094 5.320312 -9.839844 C 1.863281 -12.425781 2.152344 -15.253906 2.996094 -17.164062 C 4.667969 -20.960938 9.839844 -23.886719 13.585938 -23.1875 C 13.925781 -23.160156 14.214844 -22.992188 14.386719 -22.703125 C 15.0625 -21.421875 13.636719 -18.035156 12.257812 -14.746094 C 9.914062 -9.210938 7.277344 -2.925781 11.652344 -0.871094 C 12.425781 -0.507812 13.296875 -0.289062 14.144531 -0.289062 C 14.988281 -0.289062 15.835938 -0.507812 16.585938 -0.871094 Z M 16.585938 -0.871094 "/></g></g></g><g fill="#000000" fill-opacity="1"><g transform="translate(82.479017, 204.018534)"><g><path d="M 20.285156 -6.214844 C 20.164062 -6.335938 20.019531 -6.429688 19.847656 -6.429688 C 19.679688 -6.457031 19.511719 -6.40625 19.390625 -6.308594 C 19.292969 -6.238281 9.984375 1.160156 2.222656 -2.03125 C 0.652344 -2.683594 0.582031 -3.53125 0.628906 -3.988281 C 0.628906 -4.0625 0.652344 -4.132812 0.726562 -4.183594 C 0.773438 -4.230469 0.871094 -4.230469 0.941406 -4.207031 C 2.515625 -4.109375 4.085938 -4.519531 5.441406 -5.367188 C 6.601562 -6.117188 6.792969 -6.9375 6.722656 -7.46875 C 6.671875 -8.339844 5.972656 -9.042969 5.078125 -9.066406 C 3.167969 -9.164062 -0.0234375 -6.890625 -0.554688 -4.472656 C -0.773438 -3.578125 -0.75 -1.886719 1.742188 -0.871094 C 3.265625 -0.242188 4.859375 0.046875 6.480469 0.046875 C 13.417969 0.046875 19.847656 -5.054688 20.1875 -5.320312 C 20.308594 -5.414062 20.40625 -5.585938 20.40625 -5.730469 C 20.429688 -5.898438 20.382812 -6.070312 20.285156 -6.214844 Z M 1.5 -5.679688 C 2.441406 -6.988281 4.011719 -7.859375 5.003906 -7.785156 C 5.269531 -7.785156 5.414062 -7.6875 5.464844 -7.324219 C 5.488281 -7.082031 5.222656 -6.746094 4.738281 -6.429688 C 3.746094 -5.777344 0.773438 -4.714844 1.5 -5.679688 Z M 1.5 -5.679688 "/></g></g></g><g fill="#000000" fill-opacity="1"><g transform="translate(101.838589, 204.018534)"><g><path d="M 16.632812 -6.1875 C 16.511719 -6.308594 16.34375 -6.382812 16.175781 -6.382812 C 16.003906 -6.382812 15.835938 -6.308594 15.714844 -6.1875 C 15.667969 -6.140625 9.308594 0.121094 4.738281 -1.257812 C 3.117188 -1.742188 2.222656 -3.289062 1.714844 -4.933594 C 1.570312 -5.464844 1.621094 -6.042969 1.863281 -6.550781 C 3.554688 -9.984375 7.710938 -18.980469 5.65625 -21.179688 C 5.175781 -21.785156 4.375 -21.976562 3.675781 -21.6875 C 1.234375 -20.621094 -0.386719 -13.492188 -0.0976562 -8.292969 C -0.046875 -7.496094 0.046875 -6.695312 0.195312 -5.898438 C 0.195312 -5.800781 0.195312 -5.730469 0.242188 -5.65625 C 0.871094 -2.609375 2.296875 -0.652344 4.375 -0.046875 C 4.957031 0.121094 5.535156 0.21875 6.117188 0.21875 C 11.023438 0.21875 16.367188 -5.054688 16.609375 -5.292969 C 16.730469 -5.414062 16.804688 -5.5625 16.804688 -5.730469 C 16.804688 -5.921875 16.753906 -6.070312 16.632812 -6.1875 Z M 1.234375 -8.65625 C 0.484375 -12.691406 2.972656 -20.019531 4.183594 -20.527344 C 4.230469 -20.550781 4.28125 -20.574219 4.328125 -20.574219 C 4.425781 -20.574219 4.546875 -20.527344 4.714844 -20.332031 C 5.679688 -19.316406 2.925781 -10.566406 1.644531 -8.511719 C 1.523438 -8.292969 1.28125 -8.414062 1.234375 -8.65625 Z M 1.234375 -8.65625 "/></g></g></g><g fill="#000000" fill-opacity="1"><g transform="translate(117.766136, 204.018534)"><g><path d="M 16.632812 -6.1875 C 16.511719 -6.308594 16.34375 -6.382812 16.175781 -6.382812 C 16.003906 -6.382812 15.835938 -6.308594 15.714844 -6.1875 C 15.667969 -6.140625 9.308594 0.121094 4.738281 -1.257812 C 3.117188 -1.742188 2.222656 -3.289062 1.714844 -4.933594 C 1.570312 -5.464844 1.621094 -6.042969 1.863281 -6.550781 C 3.554688 -9.984375 7.710938 -18.980469 5.65625 -21.179688 C 5.175781 -21.785156 4.375 -21.976562 3.675781 -21.6875 C 1.234375 -20.621094 -0.386719 -13.492188 -0.0976562 -8.292969 C -0.046875 -7.496094 0.046875 -6.695312 0.195312 -5.898438 C 0.195312 -5.800781 0.195312 -5.730469 0.242188 -5.65625 C 0.871094 -2.609375 2.296875 -0.652344 4.375 -0.046875 C 4.957031 0.121094 5.535156 0.21875 6.117188 0.21875 C 11.023438 0.21875 16.367188 -5.054688 16.609375 -5.292969 C 16.730469 -5.414062 16.804688 -5.5625 16.804688 -5.730469 C 16.804688 -5.921875 16.753906 -6.070312 16.632812 -6.1875 Z M 1.234375 -8.65625 C 0.484375 -12.691406 2.972656 -20.019531 4.183594 -20.527344 C 4.230469 -20.550781 4.28125 -20.574219 4.328125 -20.574219 C 4.425781 -20.574219 4.546875 -20.527344 4.714844 -20.332031 C 5.679688 -19.316406 2.925781 -10.566406 1.644531 -8.511719 C 1.523438 -8.292969 1.28125 -8.414062 1.234375 -8.65625 Z M 1.234375 -8.65625 "/></g></g></g><g fill="#000000" fill-opacity="1"><g transform="translate(133.693683, 204.018534)"><g><path d="M 21.128906 -6.019531 C 20.984375 -6.117188 20.839844 -6.1875 20.671875 -6.1875 C 20.503906 -6.164062 20.332031 -6.09375 20.234375 -5.972656 C 20.164062 -5.921875 14.84375 -0.242188 10.226562 -2.101562 C 9.234375 -2.636719 8.4375 -3.433594 7.882812 -4.425781 C 7.6875 -4.738281 7.445312 -5.054688 7.15625 -5.34375 C 6.84375 -5.730469 6.359375 -5.949219 5.851562 -5.972656 C 4.617188 -6.070312 3.117188 -5.246094 1.328125 -3.554688 C 1.28125 -3.503906 1.207031 -3.480469 1.136719 -3.53125 C 1.0625 -3.554688 1.015625 -3.652344 1.039062 -3.722656 L 1.570312 -6.09375 C 1.667969 -6.429688 1.449219 -6.792969 1.113281 -6.867188 C 0.773438 -6.9375 0.433594 -6.722656 0.339844 -6.382812 L -0.871094 -1.089844 C -0.941406 -0.796875 -0.796875 -0.507812 -0.53125 -0.386719 C -0.265625 -0.242188 0.046875 -0.3125 0.242188 -0.53125 C 3.480469 -4.328125 5.125 -4.691406 5.707031 -4.714844 C 6.285156 -4.738281 6.648438 -3.988281 6.84375 -3.699219 C 7.519531 -2.515625 8.535156 -1.546875 9.742188 -0.941406 C 15.160156 1.257812 20.914062 -4.859375 21.15625 -5.125 C 21.398438 -5.367188 21.371094 -5.777344 21.128906 -6.019531 Z M 21.128906 -6.019531 "/></g></g></g><g fill="#000000" fill-opacity="1"><g transform="translate(153.82667, 204.018534)"><g><path d="M 20.285156 -6.214844 C 20.164062 -6.335938 20.019531 -6.429688 19.847656 -6.429688 C 19.679688 -6.457031 19.511719 -6.40625 19.390625 -6.308594 C 19.292969 -6.238281 9.984375 1.160156 2.222656 -2.03125 C 0.652344 -2.683594 0.582031 -3.53125 0.628906 -3.988281 C 0.628906 -4.0625 0.652344 -4.132812 0.726562 -4.183594 C 0.773438 -4.230469 0.871094 -4.230469 0.941406 -4.207031 C 2.515625 -4.109375 4.085938 -4.519531 5.441406 -5.367188 C 6.601562 -6.117188 6.792969 -6.9375 6.722656 -7.46875 C 6.671875 -8.339844 5.972656 -9.042969 5.078125 -9.066406 C 3.167969 -9.164062 -0.0234375 -6.890625 -0.554688 -4.472656 C -0.773438 -3.578125 -0.75 -1.886719 1.742188 -0.871094 C 3.265625 -0.242188 4.859375 0.046875 6.480469 0.046875 C 13.417969 0.046875 19.847656 -5.054688 20.1875 -5.320312 C 20.308594 -5.414062 20.40625 -5.585938 20.40625 -5.730469 C 20.429688 -5.898438 20.382812 -6.070312 20.285156 -6.214844 Z M 1.5 -5.679688 C 2.441406 -6.988281 4.011719 -7.859375 5.003906 -7.785156 C 5.269531 -7.785156 5.414062 -7.6875 5.464844 -7.324219 C 5.488281 -7.082031 5.222656 -6.746094 4.738281 -6.429688 C 3.746094 -5.777344 0.773438 -4.714844 1.5 -5.679688 Z M 1.5 -5.679688 "/></g></g></g><g fill="#000000" fill-opacity="1"><g transform="translate(173.186242, 204.018534)"><g><path d="M 16.585938 -6.695312 C 16.464844 -6.816406 16.320312 -6.867188 16.148438 -6.867188 C 15.980469 -6.867188 15.8125 -6.816406 15.691406 -6.695312 C 13.371094 -4.496094 10.515625 -2.949219 7.398438 -2.199219 C 7.277344 -2.152344 7.132812 -2.199219 7.058594 -2.296875 C 6.988281 -2.417969 6.964844 -2.539062 7.035156 -2.660156 C 7.46875 -3.503906 7.375 -4.519531 6.816406 -5.292969 C 6.480469 -5.753906 6.042969 -6.140625 5.535156 -6.429688 C 4.859375 -6.890625 4.109375 -7.421875 4.085938 -7.976562 C 4.109375 -8.292969 4.230469 -8.582031 4.449219 -8.824219 L 5.753906 -10.058594 C 5.996094 -10.300781 6.019531 -10.6875 5.800781 -10.929688 C 5.585938 -11.195312 5.222656 -11.242188 4.933594 -11.023438 C 4.425781 -10.636719 3.941406 -10.203125 3.53125 -9.695312 L -0.195312 -6.214844 C -0.363281 -6.070312 -0.433594 -5.828125 -0.386719 -5.609375 C -0.339844 -5.367188 -0.167969 -5.199219 0.046875 -5.125 C 0.265625 -5.078125 0.507812 -5.125 0.675781 -5.292969 L 2.515625 -7.011719 C 2.609375 -7.109375 2.730469 -7.132812 2.851562 -7.132812 C 2.972656 -7.109375 3.070312 -7.035156 3.117188 -6.9375 C 3.578125 -6.308594 4.160156 -5.777344 4.8125 -5.390625 C 5.175781 -5.175781 5.488281 -4.933594 5.753906 -4.617188 C 5.996094 -4.351562 6.117188 -3.988281 6.042969 -3.625 C 5.972656 -3.265625 5.753906 -2.949219 5.441406 -2.78125 C 3.890625 -1.910156 1.933594 -2.320312 0.871094 -3.746094 C 0.699219 -4.011719 0.3125 -4.109375 0.0234375 -3.917969 C -0.265625 -3.746094 -0.363281 -3.386719 -0.195312 -3.070312 C 0.605469 -1.691406 2.03125 -0.796875 3.625 -0.675781 C 4.039062 -0.605469 4.425781 -0.582031 4.835938 -0.582031 C 8.921875 -0.582031 13.949219 -3.144531 16.585938 -5.800781 C 16.828125 -6.042969 16.828125 -6.457031 16.585938 -6.695312 Z M 16.585938 -6.695312 "/></g></g></g><g fill="#000000" fill-opacity="1"><g transform="translate(188.799579, 204.018534)"><g><path d="M 16.585938 -6.695312 C 16.464844 -6.816406 16.320312 -6.867188 16.148438 -6.867188 C 15.980469 -6.867188 15.8125 -6.816406 15.691406 -6.695312 C 13.371094 -4.496094 10.515625 -2.949219 7.398438 -2.199219 C 7.277344 -2.152344 7.132812 -2.199219 7.058594 -2.296875 C 6.988281 -2.417969 6.964844 -2.539062 7.035156 -2.660156 C 7.46875 -3.503906 7.375 -4.519531 6.816406 -5.292969 C 6.480469 -5.753906 6.042969 -6.140625 5.535156 -6.429688 C 4.859375 -6.890625 4.109375 -7.421875 4.085938 -7.976562 C 4.109375 -8.292969 4.230469 -8.582031 4.449219 -8.824219 L 5.753906 -10.058594 C 5.996094 -10.300781 6.019531 -10.6875 5.800781 -10.929688 C 5.585938 -11.195312 5.222656 -11.242188 4.933594 -11.023438 C 4.425781 -10.636719 3.941406 -10.203125 3.53125 -9.695312 L -0.195312 -6.214844 C -0.363281 -6.070312 -0.433594 -5.828125 -0.386719 -5.609375 C -0.339844 -5.367188 -0.167969 -5.199219 0.046875 -5.125 C 0.265625 -5.078125 0.507812 -5.125 0.675781 -5.292969 L 2.515625 -7.011719 C 2.609375 -7.109375 2.730469 -7.132812 2.851562 -7.132812 C 2.972656 -7.109375 3.070312 -7.035156 3.117188 -6.9375 C 3.578125 -6.308594 4.160156 -5.777344 4.8125 -5.390625 C 5.175781 -5.175781 5.488281 -4.933594 5.753906 -4.617188 C 5.996094 -4.351562 6.117188 -3.988281 6.042969 -3.625 C 5.972656 -3.265625 5.753906 -2.949219 5.441406 -2.78125 C 3.890625 -1.910156 1.933594 -2.320312 0.871094 -3.746094 C 0.699219 -4.011719 0.3125 -4.109375 0.0234375 -3.917969 C -0.265625 -3.746094 -0.363281 -3.386719 -0.195312 -3.070312 C 0.605469 -1.691406 2.03125 -0.796875 3.625 -0.675781 C 4.039062 -0.605469 4.425781 -0.582031 4.835938 -0.582031 C 8.921875 -0.582031 13.949219 -3.144531 16.585938 -5.800781 C 16.828125 -6.042969 16.828125 -6.457031 16.585938 -6.695312 Z M 16.585938 -6.695312 "/></g></g></g><g fill="#000000" fill-opacity="1"><g transform="translate(204.412917, 204.018534)"><g/></g></g><g fill="#000000" fill-opacity="1"><g transform="translate(213.403885, 204.018534)"><g><path d="M 19.898438 -4.640625 C 20.089844 -4.933594 20.019531 -5.320312 19.726562 -5.535156 C 19.4375 -5.730469 19.027344 -5.65625 18.832031 -5.367188 C 18.664062 -5.101562 14.457031 0.917969 7.976562 -1.476562 C 1.765625 -3.773438 1.449219 -8.582031 2.273438 -12.234375 C 4.0625 -20.117188 12.210938 -27.949219 16.585938 -27.5625 C 17.382812 -27.511719 18.179688 -27.273438 18.859375 -26.835938 C 19.125 -26.59375 19.292969 -26.257812 19.246094 -25.917969 C 19.222656 -25.554688 19.003906 -25.242188 18.6875 -25.097656 C 16.101562 -23.71875 13.902344 -21.664062 12.378906 -19.171875 C 11.554688 -17.722656 11.386719 -16.5625 11.871094 -15.761719 C 12.257812 -15.207031 12.910156 -14.894531 13.613281 -14.964844 C 16.804688 -15.039062 20.9375 -20.285156 21.226562 -24.296875 C 21.203125 -24.613281 21.398438 -24.902344 21.6875 -25 C 22.773438 -25.335938 23.933594 -25.53125 25.097656 -25.53125 C 25.457031 -25.53125 25.722656 -25.820312 25.722656 -26.183594 C 25.722656 -26.523438 25.433594 -26.8125 25.097656 -26.8125 L 25.070312 -26.8125 C 24.082031 -26.789062 23.089844 -26.667969 22.121094 -26.425781 C 21.492188 -26.28125 20.816406 -26.523438 20.429688 -27.054688 C 19.488281 -28.140625 18.132812 -28.769531 16.683594 -28.820312 C 11.363281 -29.328125 2.851562 -20.476562 1.039062 -12.5 C -0.289062 -6.671875 2.007812 -2.320312 7.542969 -0.289062 C 8.632812 0.121094 9.792969 0.339844 10.953125 0.363281 C 16.417969 0.363281 19.847656 -4.570312 19.898438 -4.640625 Z M 13.5625 -16.222656 C 13.347656 -16.222656 13.054688 -16.246094 12.957031 -16.417969 C 12.789062 -16.707031 12.886719 -17.480469 13.464844 -18.542969 C 14.773438 -20.648438 16.5625 -22.410156 18.6875 -23.644531 C 18.929688 -23.789062 19.222656 -23.765625 19.460938 -23.597656 C 19.679688 -23.425781 19.777344 -23.136719 19.703125 -22.871094 C 18.785156 -19.679688 15.570312 -16.269531 13.5625 -16.222656 Z M 13.5625 -16.222656 "/></g></g></g><g fill="#000000" fill-opacity="1"><g transform="translate(234.817844, 204.018534)"><g><path d="M 20.285156 -6.214844 C 20.164062 -6.335938 20.019531 -6.429688 19.847656 -6.429688 C 19.679688 -6.457031 19.511719 -6.40625 19.390625 -6.308594 C 19.292969 -6.238281 9.984375 1.160156 2.222656 -2.03125 C 0.652344 -2.683594 0.582031 -3.53125 0.628906 -3.988281 C 0.628906 -4.0625 0.652344 -4.132812 0.726562 -4.183594 C 0.773438 -4.230469 0.871094 -4.230469 0.941406 -4.207031 C 2.515625 -4.109375 4.085938 -4.519531 5.441406 -5.367188 C 6.601562 -6.117188 6.792969 -6.9375 6.722656 -7.46875 C 6.671875 -8.339844 5.972656 -9.042969 5.078125 -9.066406 C 3.167969 -9.164062 -0.0234375 -6.890625 -0.554688 -4.472656 C -0.773438 -3.578125 -0.75 -1.886719 1.742188 -0.871094 C 3.265625 -0.242188 4.859375 0.046875 6.480469 0.046875 C 13.417969 0.046875 19.847656 -5.054688 20.1875 -5.320312 C 20.308594 -5.414062 20.40625 -5.585938 20.40625 -5.730469 C 20.429688 -5.898438 20.382812 -6.070312 20.285156 -6.214844 Z M 1.5 -5.679688 C 2.441406 -6.988281 4.011719 -7.859375 5.003906 -7.785156 C 5.269531 -7.785156 5.414062 -7.6875 5.464844 -7.324219 C 5.488281 -7.082031 5.222656 -6.746094 4.738281 -6.429688 C 3.746094 -5.777344 0.773438 -4.714844 1.5 -5.679688 Z M 1.5 -5.679688 "/></g></g></g><g fill="#000000" fill-opacity="1"><g transform="translate(254.177415, 204.018534)"><g><path d="M 21.128906 -6.019531 C 20.984375 -6.117188 20.839844 -6.1875 20.671875 -6.1875 C 20.503906 -6.164062 20.332031 -6.09375 20.234375 -5.972656 C 20.164062 -5.921875 14.84375 -0.242188 10.226562 -2.101562 C 9.234375 -2.636719 8.4375 -3.433594 7.882812 -4.425781 C 7.6875 -4.738281 7.445312 -5.054688 7.15625 -5.34375 C 6.84375 -5.730469 6.359375 -5.949219 5.851562 -5.972656 C 4.617188 -6.070312 3.117188 -5.246094 1.328125 -3.554688 C 1.28125 -3.503906 1.207031 -3.480469 1.136719 -3.53125 C 1.0625 -3.554688 1.015625 -3.652344 1.039062 -3.722656 L 1.570312 -6.09375 C 1.667969 -6.429688 1.449219 -6.792969 1.113281 -6.867188 C 0.773438 -6.9375 0.433594 -6.722656 0.339844 -6.382812 L -0.871094 -1.089844 C -0.941406 -0.796875 -0.796875 -0.507812 -0.53125 -0.386719 C -0.265625 -0.242188 0.046875 -0.3125 0.242188 -0.53125 C 3.480469 -4.328125 5.125 -4.691406 5.707031 -4.714844 C 6.285156 -4.738281 6.648438 -3.988281 6.84375 -3.699219 C 7.519531 -2.515625 8.535156 -1.546875 9.742188 -0.941406 C 15.160156 1.257812 20.914062 -4.859375 21.15625 -5.125 C 21.398438 -5.367188 21.371094 -5.777344 21.128906 -6.019531 Z M 21.128906 -6.019531 "/></g></g></g><g fill="#000000" fill-opacity="1"><g transform="translate(274.310403, 204.018534)"><g><path d="M 16.585938 -6.574219 C 16.34375 -6.816406 15.933594 -6.816406 15.691406 -6.550781 C 15.640625 -6.503906 9.089844 0.0976562 4.738281 -1.546875 C 2.804688 -2.296875 1.984375 -4.546875 1.667969 -6.769531 C 2.101562 -7.832031 2.828125 -9.597656 3.503906 -11.582031 C 3.578125 -11.824219 3.652344 -11.847656 3.941406 -11.871094 C 7.203125 -12.113281 10.445312 -12.234375 12.355469 -12.234375 C 12.71875 -12.234375 12.984375 -12.523438 12.984375 -12.863281 C 12.984375 -13.226562 12.71875 -13.492188 12.355469 -13.492188 C 10.515625 -13.492188 7.496094 -13.347656 4.398438 -13.175781 C 4.28125 -13.152344 4.0625 -13.226562 4.230469 -13.660156 C 5.390625 -16.972656 6.214844 -20.332031 5.707031 -21.347656 C 5.199219 -22.363281 4.519531 -22.386719 4.183594 -22.316406 C 2.394531 -21.976562 1.089844 -17.335938 0.507812 -13.539062 C 0.460938 -13.199219 0.289062 -12.910156 -0.0234375 -12.886719 C -3.820312 -12.597656 -6.9375 -12.378906 -6.988281 -12.378906 C -7.351562 -12.355469 -7.617188 -12.0625 -7.589844 -11.703125 C -7.589844 -11.363281 -7.300781 -11.074219 -6.9375 -11.097656 L -6.890625 -11.097656 C -6.816406 -11.097656 -3.890625 -11.316406 -0.242188 -11.582031 C -0.121094 -11.605469 0 -11.582031 0.0976562 -11.484375 C 0.195312 -11.410156 0.265625 -11.289062 0.265625 -11.167969 C -0.0976562 -5.414062 1.355469 -1.476562 4.28125 -0.363281 C 4.90625 -0.144531 5.5625 -0.0234375 6.238281 -0.0234375 C 11.023438 -0.0234375 16.34375 -5.414062 16.609375 -5.65625 C 16.730469 -5.777344 16.777344 -5.949219 16.777344 -6.117188 C 16.777344 -6.285156 16.707031 -6.457031 16.585938 -6.574219 Z M 1.789062 -13.585938 C 2.34375 -17.261719 3.457031 -20.164062 4.109375 -20.914062 C 4.183594 -20.960938 4.28125 -20.984375 4.375 -20.960938 C 4.449219 -20.9375 4.519531 -20.890625 4.570312 -20.792969 C 4.859375 -20.164062 4.039062 -17.09375 2.804688 -13.441406 C 2.757812 -13.226562 2.585938 -13.054688 2.34375 -13.03125 C 2.222656 -13.007812 2.101562 -13.007812 1.957031 -13.007812 C 1.714844 -13.007812 1.765625 -13.394531 1.789062 -13.5625 Z M 1.5 -9.792969 C 1.257812 -9.792969 1.355469 -11.484375 1.570312 -11.726562 C 1.765625 -11.847656 2.007812 -11.871094 2.199219 -11.75 C 2.417969 -11.554688 1.765625 -9.792969 1.5 -9.792969 Z M 1.5 -9.792969 "/></g></g></g><g fill="#000000" fill-opacity="1"><g transform="translate(289.75456, 204.018534)"><g><path d="M 20.285156 -6.214844 C 20.164062 -6.335938 20.019531 -6.429688 19.847656 -6.429688 C 19.679688 -6.457031 19.511719 -6.40625 19.390625 -6.308594 C 19.292969 -6.238281 9.984375 1.160156 2.222656 -2.03125 C 0.652344 -2.683594 0.582031 -3.53125 0.628906 -3.988281 C 0.628906 -4.0625 0.652344 -4.132812 0.726562 -4.183594 C 0.773438 -4.230469 0.871094 -4.230469 0.941406 -4.207031 C 2.515625 -4.109375 4.085938 -4.519531 5.441406 -5.367188 C 6.601562 -6.117188 6.792969 -6.9375 6.722656 -7.46875 C 6.671875 -8.339844 5.972656 -9.042969 5.078125 -9.066406 C 3.167969 -9.164062 -0.0234375 -6.890625 -0.554688 -4.472656 C -0.773438 -3.578125 -0.75 -1.886719 1.742188 -0.871094 C 3.265625 -0.242188 4.859375 0.046875 6.480469 0.046875 C 13.417969 0.046875 19.847656 -5.054688 20.1875 -5.320312 C 20.308594 -5.414062 20.40625 -5.585938 20.40625 -5.730469 C 20.429688 -5.898438 20.382812 -6.070312 20.285156 -6.214844 Z M 1.5 -5.679688 C 2.441406 -6.988281 4.011719 -7.859375 5.003906 -7.785156 C 5.269531 -7.785156 5.414062 -7.6875 5.464844 -7.324219 C 5.488281 -7.082031 5.222656 -6.746094 4.738281 -6.429688 C 3.746094 -5.777344 0.773438 -4.714844 1.5 -5.679688 Z M 1.5 -5.679688 "/></g></g></g><g fill="#000000" fill-opacity="1"><g transform="translate(309.114116, 204.018534)"><g><path d="M 20.839844 -6.359375 C 20.71875 -6.480469 20.574219 -6.550781 20.40625 -6.550781 C 20.234375 -6.550781 20.066406 -6.480469 19.945312 -6.359375 C 15.761719 -2.273438 8.339844 -1.402344 6.746094 -2.34375 C 5.65625 -2.972656 5.777344 -3.722656 6.550781 -5.222656 C 6.914062 -5.949219 7.324219 -6.792969 6.625 -7.300781 C 5.972656 -7.785156 5.34375 -7.46875 4.785156 -7.179688 C 3.988281 -6.722656 3.09375 -6.480469 2.152344 -6.480469 C 1.933594 -6.480469 1.742188 -6.867188 1.789062 -7.011719 C 3.144531 -9.984375 2.539062 -10.542969 2.320312 -10.757812 C 1.957031 -11.121094 1.402344 -11.097656 0.726562 -10.6875 C -0.386719 -9.886719 -0.871094 -8.460938 -0.484375 -7.132812 C -0.386719 -6.769531 -0.21875 -6.429688 0.0234375 -6.140625 C 0 -5.875 0.121094 -5.632812 0.363281 -5.511719 C 0.507812 -5.441406 0.675781 -5.441406 0.847656 -5.488281 C 1.257812 -5.292969 1.714844 -5.199219 2.175781 -5.199219 C 3.167969 -5.175781 4.132812 -5.390625 5.003906 -5.875 C 5.34375 -6.042969 5.464844 -5.898438 5.414062 -5.800781 C 4.835938 -4.667969 3.796875 -2.585938 6.117188 -1.234375 C 6.9375 -0.847656 7.859375 -0.675781 8.777344 -0.75 C 12.160156 -0.75 17.480469 -2.199219 20.816406 -5.464844 C 20.9375 -5.5625 21.011719 -5.730469 21.011719 -5.898438 C 21.035156 -6.070312 20.960938 -6.238281 20.839844 -6.359375 Z M 0.699219 -7.6875 C 0.554688 -8.390625 0.796875 -9.113281 1.355469 -9.574219 C 1.183594 -8.921875 0.96875 -8.292969 0.699219 -7.664062 Z M 0.699219 -7.6875 "/></g></g></g></svg>